<?xml version="1.0" encoding="utf-8"?>
<!-- Generator: Adobe Illustrator 19.2.1, SVG Export Plug-In . SVG Version: 6.00 Build 0)  -->
<svg version="1.1" id="Layer_1" xmlns="http://www.w3.org/2000/svg" xmlns:xlink="http://www.w3.org/1999/xlink" x="0px" y="0px"
	 viewBox="0 0 64 64" style="enable-background:new 0 0 64 64;" xml:space="preserve">
<style type="text/css">
	.st0{fill:#666666;}
</style>
<title>telephone</title>
<g>
	<path class="st0" d="M58.84,46.8l-9-9c-1.55-1.51-4.03-1.51-5.58,0l-4.86,4.86c-0.41,0.31-0.93,0.45-1.44,0.4
		c-2.44,0-6.93-1.86-11-6c-2.28-2.24-4.08-4.92-5.28-7.88c-0.91-2.44-0.8-4.07-0.27-4.59l4.86-4.86c1.54-1.54,1.54-4.03,0.01-5.57
		l-0.01-0.01l-9-9c-1.55-1.51-4.03-1.51-5.58,0l-5.21,5.2c-6,6-0.4,21.14,12.84,34.38C28.52,54,39.4,60,47,60
		c2.46,0.14,4.87-0.73,6.68-2.41l5.2-5.21c0.73-0.74,1.13-1.75,1.12-2.79C60,48.54,59.58,47.54,58.84,46.8z"/>
</g>
</svg>
